<?xml version="1.0" encoding="UTF-8"?>
<svg id="Layer_1" xmlns="http://www.w3.org/2000/svg" version="1.1" viewBox="0 0 800 800">
  <!-- Generator: Adobe Illustrator 30.2.1, SVG Export Plug-In . SVG Version: 2.1.1 Build 1)  -->
  <defs>
    <style>
      .st0 {
        fill: #9ebbbd;
      }

      .st1 {
        fill: none;
        stroke: #9ebbbd;
        stroke-linecap: round;
        stroke-linejoin: round;
        stroke-width: 50px;
      }
    </style>
  </defs>
  <path class="st0" d="M200,387.5l-16.79-18.52c-4.93,4.46-7.87,10.71-8.18,17.35-.31,6.64,2.03,13.13,6.52,18.04l18.45-16.87ZM350.12,285.19c10.23-9.27,11.01-25.08,1.74-35.31-9.27-10.23-25.08-11.01-35.31-1.74l33.57,37.05ZM314.88,550.2c9.32,10.19,25.13,10.9,35.32,1.58,10.19-9.32,10.9-25.13,1.58-35.32l-36.9,33.74ZM216.79,406.02l133.33-120.83-33.57-37.05-133.33,120.83,33.58,37.05ZM181.55,404.37l133.33,145.83,36.9-33.74-133.33-145.83-36.9,33.74Z"/>
  <path class="st0" d="M50,400c0-193.3,156.7-350,350-350V0C179.09,0,0,179.09,0,400h50ZM400,50c193.3,0,350,156.7,350,350h50C800,179.09,620.91,0,400,0v50ZM750,400c0,193.3-156.7,350-350,350v50c220.91,0,400-179.09,400-400h-50ZM400,750c-193.3,0-350-156.7-350-350H0c0,220.91,179.09,400,400,400v-50Z"/>
  <path class="st0" d="M225,266.67c0-13.81-11.19-25-25-25s-25,11.19-25,25h50ZM175,533.33c0,13.81,11.19,25,25,25s25-11.19,25-25h-50ZM175,266.67v266.67h50v-266.67h-50Z"/>
  <path class="st1" d="M433.33,266.67v266.67"/>
  <path class="st0" d="M433.33,241.67c-13.81,0-25,11.19-25,25s11.19,25,25,25v-50ZM500,266.67v25h0v-25ZM433.33,375c-13.81,0-25,11.19-25,25s11.19,25,25,25v-50ZM500,400v25-25ZM433.33,291.67h66.67v-50h-66.67v50ZM500,375h-66.67v50h66.67v-50ZM541.67,333.33c0,23.01-18.65,41.67-41.67,41.67v50c50.63,0,91.67-41.04,91.67-91.67h-50ZM500,291.67c23.01,0,41.67,18.65,41.67,41.67h50c0-50.63-41.04-91.67-91.67-91.67v50Z"/>
  <path class="st0" d="M451.01,382.32c-9.76-9.76-25.59-9.76-35.35,0s-9.76,25.59,0,35.35l35.35-35.35ZM548.99,551.01c9.76,9.76,25.59,9.76,35.35,0s9.76-25.59,0-35.35l-35.35,35.35ZM415.66,417.68l133.33,133.33,35.35-35.35-133.33-133.33-35.35,35.35Z"/>
</svg>