<?xml version="1.0" encoding="UTF-8"?>
<svg id="Layer_1" xmlns="http://www.w3.org/2000/svg" version="1.1" viewBox="0 0 11 17">
  <!-- Generator: Adobe Illustrator 30.2.1, SVG Export Plug-In . SVG Version: 2.1.1 Build 1)  -->
  <defs>
    <style>
      .st0 {
        fill: #26c0ab;
      }
    </style>
  </defs>
  <path class="st0" d="M6.02,16.33v-1.46c1.23-.08,2.22-.44,2.96-1.09.74-.65,1.12-1.51,1.12-2.58v-.14c0-.99-.35-1.77-1.04-2.34s-1.71-.93-3.04-1.09v-3.43c.56.14,1.01.4,1.36.77s.52.82.52,1.34v.29h1.82v-.43c0-.45-.09-.88-.26-1.28-.18-.41-.43-.79-.74-1.12-.34-.35-.73-.64-1.16-.85-.48-.24-.99-.41-1.52-.49V.87h-1.73v1.49c-.48.05-.96.15-1.42.32-.45.17-.84.39-1.18.67-.34.28-.6.62-.8,1.01-.2.39-.3.84-.3,1.36v.14c0,.96.32,1.71.95,2.24s1.55.88,2.75,1.04v3.91c-.7-.16-1.25-.47-1.63-.94-.38-.46-.58-1.08-.58-1.85v-.29H.26v.58c0,.46.08.92.24,1.38.16.46.4.88.73,1.27.33.39.74.73,1.25,1.01s1.11.48,1.81.59v1.51s1.73,0,1.73,0ZM4.29,7.42c-.69-.13-1.16-.33-1.43-.61s-.4-.64-.4-1.09.18-.83.53-1.1c.35-.27.78-.45,1.3-.53v3.34ZM6.02,13.14v-3.79c.77.13,1.33.33,1.68.6.35.27.53.69.53,1.25s-.2.98-.59,1.32c-.39.34-.93.54-1.62.62Z"/>
</svg>