<?xml version="1.0" encoding="UTF-8"?>
<svg id="Layer_1" xmlns="http://www.w3.org/2000/svg" version="1.1" viewBox="0 0 800 800">
  <!-- Generator: Adobe Illustrator 30.2.1, SVG Export Plug-In . SVG Version: 2.1.1 Build 1)  -->
  <defs>
    <style>
      .st0 {
        fill: #26c0ab;
      }
    </style>
  </defs>
  <path class="st0" d="M480.47,100.63c49.84,0,108.13,21.88,149.69,49.84V34.06C587.97,13.91,530.47.78,480.47.78c-83.12,0-142.03,22.19-197.66,70-55.63,47.81-98.59,111.56-118.44,196.09h-66.41v99.84h66.56v66.56h-66.56v99.84h66.56c33.28,182.97,149.69,266.09,316.09,266.09,66.56,0,98.12-6.56,149.69-33.28v-116.41c-50.94,31.25-102.97,49.84-149.69,49.84-100.31,0-160.94-53.12-186.72-166.09l269.84-.16v-99.84h-266.25v-66.56h266.09v-99.84h-266.09c13.91-52.81,37.19-92.66,72.03-124.06,35-31.41,61.09-42.19,110.94-42.19Z"/>
</svg>