<?xml version="1.0" encoding="UTF-8"?>
<svg id="Capa_1" xmlns="http://www.w3.org/2000/svg" version="1.1" viewBox="0 0 800 800">
  <!-- Generator: Adobe Illustrator 30.2.1, SVG Export Plug-In . SVG Version: 2.1.1 Build 1)  -->
  <defs>
    <style>
      .st0 {
        fill: #9ebbbd;
      }
    </style>
  </defs>
  <path class="st0" d="M436.36,773.9c4.33,4.74,5.32,11.5,2.54,17.21-2.68,5.39-8.31,8.89-14.36,8.89h-88.09c-4.34,0-8.53-1.78-11.52-4.85l-194.37-202.44-6.5.11v191.55c0,8.63-7.14,15.64-15.92,15.64H33.75c-8.77,0-15.92-7.01-15.92-15.64V15.64C17.84,7.02,24.99,0,33.76,0h74.39c8.77,0,15.92,7.01,15.92,15.64v441.08l176.97-224.63c2.95-3.79,7.66-6.05,12.55-6.05h92.37c5.93,0,11.36,3.24,14.12,8.43,2.9,5.4,2.27,12.03-1.62,16.9l-214.28,268.07,232.19,254.46ZM774.17,224.87c-106.31,0-158.49,47.57-179.71,75.03v-65.22c0-4.4-3.57-7.97-7.97-7.97h-87.47c-4.38,0-7.95,3.57-7.95,7.97l-.09,557.35c0,2.12.86,4.2,2.32,5.61,1.47,1.51,3.54,2.37,5.67,2.37h100.17c4.41,0,8-3.58,8-7.98v-297.1c0-16.75,2.27-32.55,4.46-45.76,13.46-74.17,61.34-119.44,127.98-121.09h34.55c2.12,0,4.2-.86,5.63-2.33,1.53-1.51,2.37-3.52,2.37-5.66v-87.21c.05-4.41-3.54-7.99-7.97-7.99Z"/>
</svg>