<?xml version="1.0" encoding="UTF-8"?>
<svg id="Flat" xmlns="http://www.w3.org/2000/svg" version="1.1" viewBox="0 0 800 800">
  <!-- Generator: Adobe Illustrator 30.2.1, SVG Export Plug-In . SVG Version: 2.1.1 Build 1)  -->
  <defs>
    <style>
      .st0 {
        fill: #9ebbbd;
      }
    </style>
  </defs>
  <path class="st0" d="M601.78,591.42c9.76,9.76,9.76,25.59,0,35.35,0,0,0,0,0,0-97.63,97.63-255.92,97.63-353.55,0-40.78-40.78-66.2-94.4-71.97-151.78h-51.25c-13.81,0-25-11.19-25-25s11.19-25,25-25h50v-50h-50c-13.81,0-25-11.19-25-25s11.19-25,25-25h51.25c13.81-137.38,136.37-237.55,273.75-223.75,57.38,5.77,111,31.19,151.78,71.97,9.77,9.75,9.78,25.58.03,35.35-9.75,9.77-25.58,9.78-35.35.03,0,0-.02-.02-.03-.03-78.08-78.1-204.69-78.11-282.79-.02-31.41,31.41-51.47,72.37-57.02,116.44h198.38c13.81,0,25,11.19,25,25s-11.19,25-25,25h-200v50h150c13.81,0,25,11.19,25,25s-11.19,25-25,25h-148.38c13.79,109.57,113.79,187.22,223.36,173.44,44.07-5.55,85.04-25.61,116.44-57.02,9.76-9.76,25.59-9.76,35.35,0Z"/>
</svg>